<svg xmlns="http://www.w3.org/2000/svg" viewBox="0 0 96 96" fill="none" role="img" aria-label="MochiRoute icon">
  <title>MochiRoute</title>
  <!-- Ears -->
  <path d="M22 34 L10 6 L38 22 Z" fill="#E07A2F"/>
  <path d="M22 34 L10 6 L26 18 Z" fill="#F4C9A0"/>
  <path d="M74 34 L86 6 L58 22 Z" fill="#E07A2F"/>
  <path d="M74 34 L86 6 L70 18 Z" fill="#F4C9A0"/>

  <!-- Head -->
  <ellipse cx="48" cy="54" rx="40" ry="38" fill="#E8853A"/>

  <!-- White muzzle -->
  <ellipse cx="48" cy="66" rx="24" ry="20" fill="#FEFEFE"/>

  <!-- Tabby stripes -->
  <path d="M32 32 Q48 22 64 32" stroke="#1A1A1A" stroke-width="2.5" stroke-linecap="round" fill="none"/>
  <path d="M36 26 Q48 18 60 26" stroke="#1A1A1A" stroke-width="2" stroke-linecap="round" fill="none"/>
  <path d="M28 42 L38 36" stroke="#1A1A1A" stroke-width="2" stroke-linecap="round"/>
  <path d="M68 42 L58 36" stroke="#1A1A1A" stroke-width="2" stroke-linecap="round"/>

  <!-- Cheek marks -->
  <path d="M20 54 Q14 64 20 74" stroke="#D4622A" stroke-width="3.5" stroke-linecap="round" fill="none"/>
  <path d="M76 54 Q82 64 76 74" stroke="#D4622A" stroke-width="3.5" stroke-linecap="round" fill="none"/>

  <!-- Eyes -->
  <ellipse cx="32" cy="50" rx="10" ry="11" fill="#1A1A1A"/>
  <ellipse cx="64" cy="50" rx="10" ry="11" fill="#1A1A1A"/>
  <circle cx="34" cy="48" r="3.5" fill="#FEFEFE"/>
  <circle cx="66" cy="48" r="3.5" fill="#FEFEFE"/>

  <!-- Nose & mouth -->
  <ellipse cx="48" cy="62" rx="4.5" ry="3.5" fill="#1A1A1A"/>
  <path d="M48 65.5 L48 72" stroke="#1A1A1A" stroke-width="1.8" stroke-linecap="round"/>
  <path d="M48 72 Q43 76 39 74" stroke="#1A1A1A" stroke-width="1.8" stroke-linecap="round" fill="none"/>
  <path d="M48 72 Q53 76 57 74" stroke="#1A1A1A" stroke-width="1.8" stroke-linecap="round" fill="none"/>

  <!-- Whiskers -->
  <path d="M22 64 L6 61" stroke="#1A1A1A" stroke-width="1.3" stroke-linecap="round" opacity="0.65"/>
  <path d="M22 69 L6 72" stroke="#1A1A1A" stroke-width="1.3" stroke-linecap="round" opacity="0.65"/>
  <path d="M74 64 L90 61" stroke="#1A1A1A" stroke-width="1.3" stroke-linecap="round" opacity="0.65"/>
  <path d="M74 69 L90 72" stroke="#1A1A1A" stroke-width="1.3" stroke-linecap="round" opacity="0.65"/>

  <!-- White chest -->
  <ellipse cx="48" cy="88" rx="18" ry="9" fill="#FEFEFE"/>
</svg>
